<svg aria-hidden="true" style="position: absolute; width: 0; height: 0; overflow: hidden;" version="1.1" xmlns="http://www.w3.org/2000/svg" xmlns:xlink="http://www.w3.org/1999/xlink">
<defs>
<symbol id="icon-heart-o" viewBox="0 0 31 31">
<path d="M16.2684 27.0445L25.9482 17.2733C27.2039 15.9916 27.9051 14.2674 27.9001 12.473C27.8952 10.6787 27.1846 8.95829 25.9218 7.68349C25.3024 7.0516 24.5634 6.5492 23.748 6.20551C22.9326 5.86183 22.057 5.68372 21.1721 5.68156C20.2872 5.67939 19.4107 5.85321 18.5936 6.19291C17.7765 6.5326 17.0351 7.03139 16.4126 7.66024L15.4888 8.59489L14.551 7.64939C13.9324 7.01834 13.1945 6.51657 12.3802 6.17327C11.5659 5.82997 10.6915 5.65199 9.8078 5.64968C8.9241 5.64737 8.04876 5.82078 7.23269 6.15982C6.41662 6.49887 5.67609 6.99678 5.05418 7.62459C2.43778 10.2673 2.45018 14.5624 5.07898 17.2175L14.8083 27.0445C15.2113 27.4522 15.8654 27.4522 16.2684 27.0445ZM17.5146 8.74989C17.9931 8.26688 18.563 7.88392 19.191 7.62333C19.8189 7.36273 20.4925 7.22972 21.1724 7.23202C21.8523 7.23433 22.525 7.37192 23.1511 7.63677C23.7773 7.90162 24.3446 8.28844 24.8198 8.77469C25.7951 9.75948 26.3443 11.0881 26.3489 12.4741C26.3535 13.8601 25.8133 15.1924 24.8446 16.1837V16.1868L15.5384 25.5798L6.17948 16.1263C4.14433 14.071 4.14278 10.7478 6.15623 8.71424C6.63413 8.23212 7.20316 7.84989 7.83019 7.58979C8.45723 7.3297 9.12974 7.19694 9.80858 7.19925C10.4874 7.20156 11.159 7.33888 11.7843 7.60324C12.4095 7.86759 12.9759 8.25368 13.4505 8.73904L14.9385 10.2425C15.0106 10.3154 15.0964 10.3733 15.191 10.4128C15.2856 10.4522 15.3871 10.4726 15.4896 10.4726C15.5921 10.4726 15.6935 10.4522 15.7881 10.4128C15.8827 10.3733 15.9685 10.3154 16.0406 10.2425L17.5146 8.74989Z" fill="#2D2D2D"/>
</symbol>
<symbol id="icon-shopping-bag" viewBox="0 0 29 29">
<path d="M20.1393 9.66665V7.29026C20.1393 6.54975 19.9935 5.81649 19.7101 5.13235C19.4267 4.44821 19.0114 3.82658 18.4877 3.30296C17.9641 2.77934 17.3425 2.36398 16.6583 2.0806C15.9742 1.79722 15.2409 1.65137 14.5004 1.65137C13.7599 1.65137 13.0267 1.79722 12.3425 2.0806C11.6584 2.36398 11.0368 2.77934 10.5131 3.30296C9.98952 3.82658 9.57416 4.44821 9.29078 5.13235C9.0074 5.81649 8.86155 6.54975 8.86155 7.29026V12.9291C8.86155 13.1428 8.94642 13.3477 9.09749 13.4988C9.24856 13.6498 9.45345 13.7347 9.6671 13.7347C9.88075 13.7347 10.0856 13.6498 10.2367 13.4988C10.3878 13.3477 10.4727 13.1428 10.4727 12.9291V11.2778L19.3338 11.2778L18.7642 9.66665H10.4727V7.29026C10.4727 6.22202 10.897 5.19754 11.6524 4.44219C12.4077 3.68683 13.4322 3.26248 14.5004 3.26248C15.5687 3.26248 16.5931 3.68683 17.3485 4.44219C18.1039 5.19754 18.5282 6.22202 18.5282 7.29026V12.8889C18.5282 13.1025 18.6131 13.3074 18.7642 13.4585C18.9152 13.6096 19.1201 13.6944 19.3338 13.6944C19.5474 13.6944 19.7523 13.6096 19.9034 13.4585C20.0545 13.3074 20.1393 13.1025 20.1393 12.8889V11.2778H24.1671V25.7778H4.83377V11.2778H9.09749V9.66665H3.22266V25.8503C3.22266 26.2583 3.38476 26.6497 3.6733 26.9382C3.96185 27.2268 4.3532 27.3889 4.76127 27.3889H24.2396C24.6477 27.3889 25.039 27.2268 25.3276 26.9382C25.6161 26.6497 25.7782 26.2583 25.7782 25.8503V9.66665H20.1393Z" fill="#2D2D2D"/>
</symbol>
<symbol id="icon-user" viewBox="0 0 34 34">
<path d="M17.7295 21.5833C24.1151 21.5833 29.292 23.999 29.292 26.9791V30.8333H6.16699V26.9791C6.16699 23.999 11.3439 21.5833 17.7295 21.5833ZM27.7503 26.9791C27.7503 24.8516 23.2641 23.1249 17.7295 23.1249C12.1949 23.1249 7.70866 24.8516 7.70866 26.9791V29.2916H27.7503V26.9791ZM17.7295 7.70825C19.1606 7.70825 20.533 8.27674 21.5449 9.28866C22.5568 10.3006 23.1253 11.673 23.1253 13.1041C23.1253 14.5351 22.5568 15.9076 21.5449 16.9195C20.533 17.9314 19.1606 18.4999 17.7295 18.4999C16.2984 18.4999 14.926 17.9314 13.9141 16.9195C12.9021 15.9076 12.3337 14.5351 12.3337 13.1041C12.3337 11.673 12.9021 10.3006 13.9141 9.28866C14.926 8.27674 16.2984 7.70825 17.7295 7.70825ZM17.7295 9.24992C16.7073 9.24992 15.727 9.65598 15.0042 10.3788C14.2814 11.1016 13.8753 12.0819 13.8753 13.1041C13.8753 14.1263 14.2814 15.1066 15.0042 15.8294C15.727 16.5522 16.7073 16.9583 17.7295 16.9583C18.7517 16.9583 19.732 16.5522 20.4548 15.8294C21.1776 15.1066 21.5837 14.1263 21.5837 13.1041C21.5837 12.0819 21.1776 11.1016 20.4548 10.3788C19.732 9.65598 18.7517 9.24992 17.7295 9.24992Z" fill="#2D2D2D"/>
</symbol>
<symbol id="icon-search" viewBox="0 0 19 19">
<path d="M8.7398 13.68C6.0038 13.68 3.7998 11.476 3.7998 8.74005C3.7998 6.00405 6.0038 3.80005 8.7398 3.80005C11.4758 3.80005 13.6798 6.00405 13.6798 8.74005C13.6798 11.476 11.4758 13.68 8.7398 13.68ZM8.7398 4.56005C6.4218 4.56005 4.5598 6.42205 4.5598 8.74005C4.5598 11.058 6.4218 12.92 8.7398 12.92C11.0578 12.92 12.9198 11.058 12.9198 8.74005C12.9198 6.42205 11.0578 4.56005 8.7398 4.56005Z" fill="#6F6F6F"/>
<path d="M12.4192 11.8813L15.8316 15.2937L15.2942 15.8311L11.8818 12.4187L12.4192 11.8813Z" fill="#6F6F6F"/>
</svg>
</symbol>
<symbol id="icon-closeCross" viewBox="0 0 32 32">
<path d="M2.901 0.844c-0.866 0.324-1.799 1.28-2.076 2.132-0.149 0.46-0.092 1.028 0.16 1.543 0.197 0.405 0.311 0.524 5.728 5.948l5.525 5.532-5.525 5.532c-5.454 5.461-5.529 5.54-5.733 5.957-0.197 0.407-0.206 0.446-0.206 0.96 0 0.501 0.012 0.56 0.176 0.887 0.354 0.704 1.010 1.36 1.714 1.714 0.327 0.164 0.386 0.176 0.887 0.176 0.514 0 0.553-0.009 0.96-0.206 0.418-0.204 0.496-0.279 5.957-5.733l5.532-5.525 5.532 5.525c5.461 5.454 5.54 5.529 5.957 5.733 0.407 0.197 0.446 0.206 0.96 0.206 0.501 0 0.56-0.012 0.887-0.176 0.453-0.228 0.939-0.622 1.273-1.035 0.146-0.18 0.343-0.485 0.441-0.679 0.164-0.327 0.176-0.386 0.176-0.887 0-0.514-0.009-0.553-0.206-0.96-0.204-0.418-0.279-0.496-5.733-5.957l-5.525-5.532 5.525-5.532c5.454-5.461 5.529-5.54 5.733-5.957 0.197-0.407 0.206-0.446 0.206-0.96 0-0.501-0.012-0.56-0.176-0.887-0.354-0.704-1.010-1.36-1.714-1.714-0.327-0.164-0.386-0.176-0.887-0.176-0.514 0-0.553 0.009-0.96 0.206-0.418 0.204-0.496 0.279-5.957 5.733l-5.532 5.525-5.532-5.525c-5.438-5.429-5.541-5.531-5.952-5.73-0.37-0.18-0.473-0.206-0.88-0.222-0.356-0.012-0.526 0.007-0.734 0.084z"></path>
</symbol>
</defs>
</svg>